<?xml version="1.0" encoding="iso-8859-1"?>
<!-- Generator: Adobe Illustrator 19.0.0, SVG Export Plug-In . SVG Version: 6.00 Build 0)  -->
<svg version="1.1" id="Capa_1" xmlns="http://www.w3.org/2000/svg" xmlns:xlink="http://www.w3.org/1999/xlink" x="0px" y="0px"
	 viewBox="0 0 512 512" style="enable-background:new 0 0 512 512;" xml:space="preserve">
<path style="fill:#E0E2E2;" d="M512,256c0,67.542-26.164,128.992-68.911,174.737c-17.586,18.818-37.982,34.993-60.52,47.825
	c-26.06,14.858-54.982,25.265-85.733,30.187c-13.291,2.142-26.937,3.25-40.834,3.25c-31.295,0-61.272-5.611-88.983-15.893
	c-60.802-22.538-110.706-67.51-139.671-124.865c-8.464-16.76-15.151-34.586-19.78-53.216c-2.382-9.55-4.221-19.32-5.486-29.267
	C0.714,278.037,0.003,267.097,0.003,256c0-1.202,0.01-2.403,0.021-3.605c0.115-7.931,0.585-15.778,1.4-23.521
	C14.976,100.238,123.781,0.002,256.002,0.002C397.386,0.002,512,114.615,512,256z"/>
<rect x="223.784" y="143.453" style="fill:#992D26;" width="73.055" height="106.558"/>
<rect x="246.918" y="164.152" style="fill:#B5423C;" width="49.921" height="85.859"/>
<path style="fill:#34A8C0;" d="M296.836,261.641v247.106c-13.291,2.142-26.937,3.25-40.834,3.25
	c-31.295,0-61.272-5.611-88.983-15.893c-60.802-22.538-110.706-67.51-139.671-124.865V261.641l80.258-71.711l54.491-48.692
	l54.512,48.713L296.836,261.641z"/>
<polygon style="fill:#228D9B;" points="296.839,261.649 296.839,328.453 162.094,218.854 27.349,328.453 27.349,261.649 
	107.603,189.933 162.094,145.614 216.609,189.958 "/>
<path style="fill:#3B465C;" d="M351.672,273.293l-35.85,44.084l-18.986-15.444L162.087,192.345L27.348,301.933l-19.78,16.091
	c-2.382-9.55-4.221-19.32-5.486-29.267C0.714,278.037,0.003,267.097,0.003,256c0-1.202,0.01-2.403,0.021-3.605
	c0.836-1.003,1.327-1.891,1.4-2.623l160.663-130.674L351.672,273.293z"/>
<rect x="214.652" y="119.107" style="fill:#FFFFFF;" width="91.313" height="32.119"/>
<rect x="214.652" y="119.107" style="fill:#CCCCCC;" width="20.37" height="32.119"/>
<rect x="99.693" y="310.364" style="fill:#FDBC69;" width="124.791" height="124.791"/>
<path style="fill:#3B465C;" d="M87.52,298.188v149.147h149.147V298.188H87.52z M212.316,349.727h-25.869V322.54h25.869V349.727z
	 M111.872,322.54h50.223v100.443h-50.223C111.872,422.983,111.872,322.54,111.872,322.54z M186.446,422.983v-48.905h25.869v48.905
	L186.446,422.983L186.446,422.983z"/>
<g>
	<polygon style="fill:#FB4A75;" points="372.574,46.888 291.372,0.002 291.372,31.215 81.201,31.215 81.201,0.002 0,46.888 
		81.201,93.78 81.201,62.561 291.372,62.561 291.372,93.78 	"/>
	<path style="fill:#FB4A75;" d="M417.521,430.737h25.568c-17.586,18.818-37.982,34.993-60.52,47.825l-27.616-47.825h31.221V179.409
		h-31.221l46.895-81.209l46.884,81.209h-31.211V430.737z"/>
</g>
<g>
</g>
<g>
</g>
<g>
</g>
<g>
</g>
<g>
</g>
<g>
</g>
<g>
</g>
<g>
</g>
<g>
</g>
<g>
</g>
<g>
</g>
<g>
</g>
<g>
</g>
<g>
</g>
<g>
</g>
</svg>
