<svg xml:space="preserve" viewBox="0 0 100 100" y="0" x="0" xmlns="http://www.w3.org/2000/svg">
<g class="ldl-scale" style="transform-origin: 50% 50%; transform: rotate(0deg) scale(0.8, 0.8);">
<g class="ldl-ani">
<g class="ldl-layer">
<g class="ldl-ani" style="transform: scale(0.91); transform-origin: 50px 50px; animation: 1.11111s linear -0.590278s infinite normal forwards running breath-5e0b8532-d76f-4eee-b29b-1ffd9b957322;"><path stroke-miterlimit="10" stroke-width="3.5" stroke-linejoin="round" stroke-linecap="round" fill="#9ec4d2" stroke="#333434" d="M12.542 56.228v11.204a2.77 2.77 0 0 0 2.771 2.771h69.374a2.77 2.77 0 0 0 2.771-2.771V56.228a2.77 2.77 0 0 0-2.771-2.771H15.313a2.771 2.771 0 0 0-2.771 2.771z" style="fill: rgb(158, 196, 210); stroke: rgb(51, 52, 52);"></path></g></g><g class="ldl-layer"><g class="ldl-ani" style="transform: scale(0.91); transform-origin: 50px 50px; animation: 1.11111s linear -0.625s infinite normal forwards running breath-5e0b8532-d76f-4eee-b29b-1ffd9b957322;"><path d="M79.134 70.203v-5.394" stroke="#333434" fill="none" stroke-miterlimit="10" stroke-linejoin="round" stroke-linecap="round" stroke-width="3.5" style="stroke: rgb(51, 52, 52);"></path></g></g><g class="ldl-layer"><g class="ldl-ani" style="transform: scale(0.91); transform-origin: 50px 50px; animation: 1.11111s linear -0.659722s infinite normal forwards running breath-5e0b8532-d76f-4eee-b29b-1ffd9b957322;"><path d="M70.81 70.203v-5.394" stroke="#333434" fill="none" stroke-miterlimit="10" stroke-linejoin="round" stroke-linecap="round" stroke-width="3.5" style="stroke: rgb(51, 52, 52);"></path></g></g><g class="ldl-layer"><g class="ldl-ani" style="transform: scale(0.91); transform-origin: 50px 50px; animation: 1.11111s linear -0.694444s infinite normal forwards running breath-5e0b8532-d76f-4eee-b29b-1ffd9b957322;"><path d="M62.486 70.203v-9.709" stroke="#333434" fill="none" stroke-miterlimit="10" stroke-linejoin="round" stroke-linecap="round" stroke-width="3.5" style="stroke: rgb(51, 52, 52);"></path></g></g><g class="ldl-layer"><g class="ldl-ani" style="transform: scale(0.91); transform-origin: 50px 50px; animation: 1.11111s linear -0.729167s infinite normal forwards running breath-5e0b8532-d76f-4eee-b29b-1ffd9b957322;"><path d="M54.162 70.203v-5.394" stroke="#333434" fill="none" stroke-miterlimit="10" stroke-linejoin="round" stroke-linecap="round" stroke-width="3.5" style="stroke: rgb(51, 52, 52);"></path></g></g><g class="ldl-layer"><g class="ldl-ani" style="transform: scale(0.91); transform-origin: 50px 50px; animation: 1.11111s linear -0.763889s infinite normal forwards running breath-5e0b8532-d76f-4eee-b29b-1ffd9b957322;"><path d="M45.838 70.203v-5.394" stroke="#333434" fill="none" stroke-miterlimit="10" stroke-linejoin="round" stroke-linecap="round" stroke-width="3.5" style="stroke: rgb(51, 52, 52);"></path></g></g><g class="ldl-layer"><g class="ldl-ani" style="transform: scale(0.91); transform-origin: 50px 50px; animation: 1.11111s linear -0.798611s infinite normal forwards running breath-5e0b8532-d76f-4eee-b29b-1ffd9b957322;"><path d="M37.514 70.203v-9.709" stroke="#333434" fill="none" stroke-miterlimit="10" stroke-linejoin="round" stroke-linecap="round" stroke-width="3.5" style="stroke: rgb(51, 52, 52);"></path></g></g><g class="ldl-layer"><g class="ldl-ani" style="transform: scale(0.91); transform-origin: 50px 50px; animation: 1.11111s linear -0.833333s infinite normal forwards running breath-5e0b8532-d76f-4eee-b29b-1ffd9b957322;"><path d="M29.19 70.203v-5.394" stroke="#333434" fill="none" stroke-miterlimit="10" stroke-linejoin="round" stroke-linecap="round" stroke-width="3.5" style="stroke: rgb(51, 52, 52);"></path></g></g><g class="ldl-layer"><g class="ldl-ani" style="transform: scale(0.91); transform-origin: 50px 50px; animation: 1.11111s linear -0.868056s infinite normal forwards running breath-5e0b8532-d76f-4eee-b29b-1ffd9b957322;"><path d="M20.866 70.203v-5.394" stroke="#333434" fill="none" stroke-miterlimit="10" stroke-linejoin="round" stroke-linecap="round" stroke-width="3.5" style="stroke: rgb(51, 52, 52);"></path></g></g><g class="ldl-layer"><g class="ldl-ani" style="transform: scale(0.91); transform-origin: 50px 50px; animation: 1.11111s linear -0.902778s infinite normal forwards running breath-5e0b8532-d76f-4eee-b29b-1ffd9b957322;"><path stroke="#333434" fill="#e0e0e0" stroke-miterlimit="10" stroke-width="3.5" d="M57.818 38.196l18.255 36.44c.045.107.05.225.014.335l-2.835 8.692c-.166.509-.987.535-1.195.038L51.793 42.138c-.119-.283.049-.595.376-.698l4.843-3.57c.326-.102.687.043.806.326z" style="fill: rgb(224, 224, 224); stroke: rgb(51, 52, 52);"></path></g></g><g class="ldl-layer"><g class="ldl-ani" style="transform: scale(0.91); transform-origin: 50px 50px; animation: 1.11111s linear -0.9375s infinite normal forwards running breath-5e0b8532-d76f-4eee-b29b-1ffd9b957322;"><path d="M72.585 84.057v3.401" stroke="#333434" stroke-linecap="round" fill="none" stroke-miterlimit="10" stroke-width="3.5" style="stroke: rgb(51, 52, 52);"></path></g></g><g class="ldl-layer"><g class="ldl-ani" style="transform: scale(0.91); transform-origin: 50px 50px; animation: 1.11111s linear -0.972222s infinite normal forwards running breath-5e0b8532-d76f-4eee-b29b-1ffd9b957322;"><path stroke="#333434" fill="#9ec4d2" stroke-miterlimit="10" stroke-width="3.5" d="M53.966 20.865h-7.932v-4.356A3.966 3.966 0 0 1 50 12.543h0a3.966 3.966 0 0 1 3.966 3.966v4.356z" style="fill: rgb(158, 196, 210); stroke: rgb(51, 52, 52);"></path></g></g><g class="ldl-layer"><g class="ldl-ani" style="transform: scale(0.91); transform-origin: 50px 50px; animation: 1.11111s linear -1.00694s infinite normal forwards running breath-5e0b8532-d76f-4eee-b29b-1ffd9b957322;"><path stroke="#333434" fill="#e0e0e0" stroke-miterlimit="10" stroke-width="3.5" d="M42.182 38.196l-18.255 36.44a.478.478 0 0 0-.014.335l2.835 8.692c.166.509.987.535 1.195.038l20.263-41.563c.119-.283-.049-.595-.376-.698l-4.843-3.57c-.325-.102-.686.043-.805.326z" style="fill: rgb(224, 224, 224); stroke: rgb(51, 52, 52);"></path></g></g><g class="ldl-layer"><g class="ldl-ani" style="transform: scale(0.91); transform-origin: 50px 50px; animation: 1.11111s linear -1.04167s infinite normal forwards running breath-5e0b8532-d76f-4eee-b29b-1ffd9b957322;"><path stroke-miterlimit="10" stroke-width="3.5" stroke="#333434" fill="#77a0b7" d="M60.915 35.313l-9.518 9.518a1.975 1.975 0 0 1-2.794 0l-9.518-9.518v-11.78a2.917 2.917 0 0 1 2.917-2.917h15.995a2.917 2.917 0 0 1 2.917 2.917v11.78z" style="fill: rgb(119, 160, 183); stroke: rgb(51, 52, 52);"></path></g></g><g class="ldl-layer"><g class="ldl-ani" style="transform: scale(0.91); transform-origin: 50px 50px; animation: 1.11111s linear -1.07639s infinite normal forwards running breath-5e0b8532-d76f-4eee-b29b-1ffd9b957322;"><circle stroke="#333434" fill="#e0e0e0" stroke-miterlimit="10" stroke-width="3.5" r="3.966" cy="31.051" cx="50" style="fill: rgb(224, 224, 224); stroke: rgb(51, 52, 52);"></circle></g></g><g class="ldl-layer"><g class="ldl-ani" style="transform: scale(0.91); transform-origin: 50px 50px; animation: 1.11111s linear -1.11111s infinite normal forwards running breath-5e0b8532-d76f-4eee-b29b-1ffd9b957322;"><path d="M27.415 84.057v3.401" stroke="#333434" stroke-linecap="round" fill="none" stroke-miterlimit="10" stroke-width="3.5" style="stroke: rgb(51, 52, 52);"></path></g></g>
</g></g></svg>