<?xml version="1.0" encoding="iso-8859-1"?>
<!-- Generator: Adobe Illustrator 19.0.0, SVG Export Plug-In . SVG Version: 6.00 Build 0)  -->
<svg version="1.1" id="Capa_1" xmlns="http://www.w3.org/2000/svg" xmlns:xlink="http://www.w3.org/1999/xlink" x="0px" y="0px"
	 viewBox="0 0 512 512" style="enable-background:new 0 0 512 512;" xml:space="preserve">
<g>
	<path style="fill:#A0D9F2;" d="M451.394,240.601l-15.108-3.153c2.581-12.368,3.891-25.095,3.891-37.828
		c0-101.561-82.62-184.186-184.174-184.186c-101.56,0-184.185,82.625-184.185,184.185c0,12.733,1.309,25.46,3.891,37.828
		L60.602,240.6c-2.797-13.403-4.216-27.192-4.216-40.982C56.385,89.548,145.934,0,256.004,0
		c110.065,0,199.608,89.548,199.608,199.618C455.611,213.409,454.192,227.197,451.394,240.601z"/>
	<path style="fill:#A0D9F2;" d="M256.004,399.226c-40.237,0-79.022-11.918-112.161-34.466
		c-32.345-22.008-57.339-52.674-72.279-88.684l14.254-5.914c13.786,33.227,36.852,61.525,66.706,81.838
		c30.568,20.799,66.351,31.793,103.479,31.793c37.126,0,72.908-10.993,103.475-31.792c29.851-20.312,52.919-48.611,66.71-81.839
		l14.254,5.916c-14.946,36.011-39.941,66.677-72.282,88.683C335.023,387.308,296.239,399.226,256.004,399.226z"/>
</g>
<circle style="fill:#E33549;" cx="255.999" cy="199.618" r="49.299"/>
<g>
	<rect x="305.302" y="191.902" style="fill:#006FB7;" width="142.599" height="15.433"/>
	<rect x="64.098" y="191.902" style="fill:#006FB7;" width="142.599" height="15.433"/>
	
		<rect x="99.425" y="106.627" transform="matrix(-0.7071 -0.7071 0.7071 -0.7071 210.5916 315.9157)" style="fill:#006FB7;" width="142.598" height="15.433"/>
	
		<rect x="269.978" y="277.171" transform="matrix(-0.7071 -0.7071 0.7071 -0.7071 381.1506 727.6533)" style="fill:#006FB7;" width="142.598" height="15.433"/>
	<rect x="248.283" y="84.201" style="fill:#006FB7;" width="15.433" height="66.114"/>
	<rect x="248.283" y="248.921" style="fill:#006FB7;" width="15.433" height="142.599"/>
	
		<rect x="333.566" y="43.041" transform="matrix(-0.7071 -0.7071 0.7071 -0.7071 501.7539 436.5137)" style="fill:#006FB7;" width="15.433" height="142.598"/>
	
		<rect x="163.012" y="213.593" transform="matrix(-0.7071 -0.7071 0.7071 -0.7071 90.0023 607.064)" style="fill:#006FB7;" width="15.433" height="142.598"/>
</g>
<path style="fill:#E33549;" d="M256.001,306.036c-58.681,0-106.422-47.74-106.422-106.422S197.32,93.194,256.001,93.194
	s106.421,47.74,106.421,106.422S314.68,306.036,256.001,306.036z M256.001,108.626c-50.171,0-90.989,40.817-90.989,90.989
	s40.817,90.989,90.989,90.989c50.171,0,90.988-40.817,90.988-90.989S306.171,108.626,256.001,108.626z"/>
<path style="fill:#EDB800;" d="M256.001,256.632c-31.44,0-57.018-25.578-57.018-57.018s25.578-57.018,57.018-57.018
	s57.017,25.578,57.017,57.018S287.439,256.632,256.001,256.632z M256.001,158.029c-22.93,0-41.585,18.655-41.585,41.585
	s18.655,41.585,41.585,41.585s41.584-18.655,41.584-41.585S278.93,158.029,256.001,158.029z"/>
<path style="fill:#A0D9F2;" d="M256.001,228.027c-15.667,0-28.413-12.745-28.413-28.413s12.745-28.413,28.413-28.413
	c15.666,0,28.412,12.745,28.412,28.413S271.667,228.027,256.001,228.027z M256.001,186.634c-7.158,0-12.98,5.822-12.98,12.98
	c0,7.158,5.822,12.98,12.98,12.98c7.157,0,12.979-5.822,12.979-12.98C268.98,192.456,263.157,186.634,256.001,186.634z"/>
<rect x="248.283" y="7.716" style="fill:#006FB7;" width="15.433" height="39.405"/>
<path style="fill:#7B8086;" d="M344.036,491.422L256.001,224.27l-88.036,267.152l-14.657-4.829L248.672,197.2
	c1.042-3.164,3.997-5.302,7.329-5.302c3.331,0,6.286,2.138,7.329,5.302l95.365,289.392L344.036,491.422z"/>
<path style="fill:#E33549;" d="M423.145,108.618l-31.453-33.435l-31.453,33.435l-11.241-10.575l37.074-39.409
	c1.458-1.549,3.493-2.429,5.621-2.429c2.128,0,4.162,0.879,5.621,2.429l37.074,39.409L423.145,108.618z"/>
<g>
	<path style="fill:#EDB800;" d="M224.546,436.209l-11.241-10.575l37.074-39.409c1.458-1.549,3.493-2.429,5.621-2.429
		c2.129,0,4.162,0.879,5.621,2.429l37.074,39.409l-11.241,10.575l-31.453-33.436L224.546,436.209z"/>
	<path style="fill:#EDB800;" d="M224.546,52.413l-11.241-10.575l37.074-39.409C251.838,0.879,253.872,0,256.001,0
		c2.129,0,4.162,0.879,5.621,2.429l37.074,39.409l-11.241,10.575l-31.453-33.435L224.546,52.413z"/>
</g>
<g>
	<path style="fill:#E33549;" d="M151.76,108.618l-31.453-33.435l-31.453,33.435l-11.24-10.575l37.074-39.409
		c1.458-1.549,3.493-2.429,5.621-2.429s4.162,0.879,5.621,2.429l37.074,39.409L151.76,108.618z"/>
	<path style="fill:#E33549;" d="M95.555,244.311l-31.453-33.436l-31.453,33.436l-11.241-10.575l37.074-39.409
		c1.458-1.549,3.492-2.429,5.621-2.429c2.128,0,4.162,0.879,5.621,2.429l37.074,39.409L95.555,244.311z"/>
</g>
<path style="fill:#419EAD;" d="M101.175,231.307H27.028c-4.262,0-7.716,3.455-7.716,7.716c0,24.697,20.092,44.79,44.79,44.79
	s44.79-20.092,44.79-44.79C108.892,234.762,105.437,231.307,101.175,231.307z"/>
<path style="fill:#348A93;" d="M38.517,239.023c0-4.262,3.455-7.716,7.716-7.716H27.028c-4.262,0-7.716,3.455-7.716,7.716
	c0,24.697,20.092,44.79,44.79,44.79c3.296,0,6.507-0.368,9.602-1.047C53.608,278.358,38.517,260.425,38.517,239.023z"/>
<path style="fill:#E33549;" d="M151.761,380.003l-31.453-33.436l-31.453,33.436l-11.241-10.575l37.074-39.409
	c1.458-1.549,3.492-2.429,5.621-2.429c2.128,0,4.162,0.879,5.621,2.429l37.074,39.409L151.761,380.003z"/>
<path style="fill:#EDB800;" d="M157.382,366.999H83.234c-4.262,0-7.716,3.455-7.716,7.716c0,24.697,20.092,44.79,44.79,44.79
	s44.79-20.092,44.79-44.79C165.098,370.454,161.643,366.999,157.382,366.999z"/>
<path style="fill:#D19B02;" d="M94.722,374.716c0-4.262,3.455-7.716,7.716-7.716H83.234c-4.262,0-7.716,3.455-7.716,7.716
	c0,24.697,20.092,44.79,44.79,44.79c3.296,0,6.507-0.368,9.602-1.047C109.814,414.05,94.722,396.116,94.722,374.716z"/>
<path style="fill:#006FB7;" d="M385.947,512H126.053v-17.963c0-6.66,5.399-12.059,12.059-12.059h235.775
	c6.66,0,12.059,5.399,12.059,12.059V512z"/>
<path style="fill:#E386AB;" d="M157.381,95.615H83.234c-4.262,0-7.716,3.455-7.716,7.716c0,24.698,20.092,44.79,44.79,44.79
	s44.79-20.092,44.79-44.79C165.097,99.069,161.642,95.615,157.381,95.615z"/>
<g>
	<path style="fill:#E33549;" d="M293.073,423.205h-74.147c-4.262,0-7.716,3.455-7.716,7.716c0,24.697,20.092,44.79,44.79,44.79
		c24.697,0,44.79-20.092,44.79-44.79C300.79,426.66,297.335,423.205,293.073,423.205z"/>
	<path style="fill:#E33549;" d="M256.001,91.916c24.697,0,44.79-20.092,44.79-44.79c0-4.262-3.455-7.716-7.716-7.716h-74.147
		c-4.262,0-7.716,3.455-7.716,7.716C211.21,71.823,231.303,91.916,256.001,91.916z"/>
</g>
<path style="fill:#CC6D94;" d="M94.722,103.331c0-4.262,3.455-7.716,7.716-7.716H83.234c-4.262,0-7.716,3.455-7.716,7.716
	c0,24.697,20.092,44.79,44.79,44.79c3.296,0,6.507-0.368,9.602-1.047C109.814,142.665,94.722,124.731,94.722,103.331z"/>
<path style="fill:#E33549;" d="M416.445,244.311l31.453-33.436l31.453,33.436l11.241-10.575l-37.074-39.409
	c-1.458-1.549-3.492-2.429-5.621-2.429c-2.128,0-4.162,0.879-5.621,2.429l-37.074,39.409L416.445,244.311z"/>
<path style="fill:#419EAD;" d="M484.972,231.307h-74.147c-4.262,0-7.716,3.455-7.716,7.716c0,24.697,20.092,44.79,44.79,44.79
	c24.698,0,44.79-20.092,44.79-44.79C492.688,234.762,489.234,231.307,484.972,231.307z"/>
<path style="fill:#348A93;" d="M422.313,239.023c0-4.262,3.455-7.716,7.716-7.716h-19.206c-4.262,0-7.716,3.455-7.716,7.716
	c0,24.697,20.092,44.79,44.79,44.79c3.296,0,6.508-0.368,9.602-1.047C437.404,278.358,422.313,260.425,422.313,239.023z"/>
<path style="fill:#E33549;" d="M360.239,380.003l31.453-33.436l31.453,33.436l11.241-10.575l-37.074-39.409
	c-1.458-1.549-3.492-2.429-5.621-2.429c-2.128,0-4.162,0.879-5.621,2.429l-37.074,39.409L360.239,380.003z"/>
<path style="fill:#EDB800;" d="M428.766,366.999h-74.147c-4.262,0-7.716,3.455-7.716,7.716c0,24.697,20.092,44.79,44.79,44.79
	c24.698,0,44.79-20.092,44.79-44.79C436.482,370.454,433.027,366.999,428.766,366.999z"/>
<path style="fill:#D19B02;" d="M366.107,374.716c0-4.262,3.455-7.716,7.716-7.716h-19.206c-4.262,0-7.716,3.455-7.716,7.716
	c0,24.697,20.092,44.79,44.79,44.79c3.296,0,6.508-0.368,9.602-1.047C381.199,414.05,366.107,396.116,366.107,374.716z"/>
<path style="fill:#E386AB;" d="M428.766,95.615h-74.146c-4.262,0-7.716,3.455-7.716,7.716c0,24.698,20.092,44.79,44.79,44.79
	c24.698,0,44.79-20.092,44.79-44.79C436.482,99.069,433.027,95.615,428.766,95.615z"/>
<path style="fill:#CC6D94;" d="M366.107,103.331c0-4.262,3.455-7.716,7.716-7.716h-19.206c-4.262,0-7.716,3.455-7.716,7.716
	c0,24.697,20.092,44.79,44.79,44.79c3.296,0,6.508-0.368,9.602-1.047C381.199,142.665,366.107,124.731,366.107,103.331z"/>
<g>
	<path style="fill:#C6283F;" d="M230.415,47.126c0-4.262,3.455-7.716,7.716-7.716h-19.206c-4.262,0-7.716,3.455-7.716,7.716
		c0,24.697,20.092,44.79,44.79,44.79c3.296,0,6.508-0.368,9.602-1.047C245.506,86.459,230.415,68.526,230.415,47.126z"/>
	<path style="fill:#C6283F;" d="M230.415,430.921c0-4.262,3.455-7.716,7.716-7.716h-19.206c-4.262,0-7.716,3.455-7.716,7.716
		c0,24.697,20.092,44.79,44.79,44.79c3.296,0,6.508-0.368,9.602-1.047C245.506,470.255,230.415,452.322,230.415,430.921z"/>
</g>
<g>
</g>
<g>
</g>
<g>
</g>
<g>
</g>
<g>
</g>
<g>
</g>
<g>
</g>
<g>
</g>
<g>
</g>
<g>
</g>
<g>
</g>
<g>
</g>
<g>
</g>
<g>
</g>
<g>
</g>
</svg>
